<?xml version="1.0" encoding="UTF-8"?>
<svg id="Camada_2" data-name="Camada 2" xmlns="http://www.w3.org/2000/svg" viewBox="0 0 760.41 990.08">
  <defs>
    <style>
      .cls-1 {
        fill: #f90b01;
      }
    </style>
  </defs>
  <g id="Camada_1-2" data-name="Camada 1">
    <g>
      <path class="cls-1" d="M546.99,549.89l-77.87,12.67c-18.91,3.08-36.7,8-53.73,16.28-19.69,9.58-33.84,24.95-41.56,45.27-5.01,13.19-8.3,26.03-10.7,40.16-6,35.23-9.48,70-12.59,105.76l-10.28,118.28-2.45,63.97-.53,33.83c-20.75,6.45-55.02,6.97-64.11-13.31l-16.72-189.95c-10.17-115.53-20.05-230.45-33.68-345.45l-5.41-45.65c-3.24-27.37-8.59-50.51-33.36-65.58-14.67-8.92-29.92-15.42-45.59-22.68-32.1-14.87-70.39-31.31-97.12-53.58-19.7-16.41-33.04-38.11-38.42-63.26-6.75-31.55-1.53-63.35,15.3-90.92,18.49-30.31,45.41-53.98,77.36-69.7,21.56-10.61,44.04-16.87,67.86-20.79,51.03-8.38,102.55-6.6,153.07,4.4,47.82,10.41,91.62,30.29,128.03,63.08l28.03,28.02,24.47,24.57c12.17,12.22,26.46,21.05,41.65,29.27l39.11,18.85c33.29,16.04,66.66,30.44,99.33,47.67l20.33,12.18c21.72,13.01,22.05,41.51,22.73,64.03l1.08,35.78,5.84,143.35c5.34,131.1,12,261.5,19.85,392.24.49,8.22,14.23,5.65,13.51,14.63-.32,3.94-2.68,5.76-7.16,6.78-10.44,2.39-25.92-3.58-26.93-16.34-6.29-79.34-12.89-158.07-23.11-237.07-3.3-25.55-7.17-50.24-13.65-74.86-2.28-8.67-5.97-16.67-12.37-22.7-15.08-14.23-39.4-11.26-59.09-5.32-23.48,7.08-46.33,12.07-71.1,16.09ZM142.79,261.48l82.27,42.81c8.53,4.44,16.11,9.17,23.34,15.3,8.99,7.62,13.83,17.78,15.39,29.51l12.33,92.65,10.43,76.99c1.01,7.43,22.46,11.06,33.39,12.4,29.94,3.66,59.85,2.97,89.58-1.67,3.72-.58,6.08-2.63,5.89-5.98-.16-2.91-2.6-5.06-6.09-4.98-23.98,3.69-47.71,4.57-71.92,3.27-13.82-.88-26.81-2.67-40.25-6.8l-9.47-70.61,73.48-18.56c3.27-.83,4.6-3.74,4.11-6.41-.38-2.09-2.92-4.95-5.9-4.21l-73.16,18.38-9.56-75.67-15.05-154.94-6.09-125.2c-.43-8.74-.77-16.61-2.05-25.16-.37-2.48-2.06-5.26-4.75-5.77-19.8-3.77-39.86-2.8-59.04,3.29-3.33,1.06-6.98,4.53-5.05,8.29,18.3,35.81,26.76,69.45,33.87,109.08,7.48,42.76,12.76,84.99,16.15,129.06l-15.21-8.28c-3.39-40.6-10.42-79.6-23.41-117.9-12.14-35.79-26.87-69.93-44.81-102.98-1.66-3.05-4.83-4.02-7.98-3.27-17.71,4.23-33.17,13.18-46.93,24.84-3.01,2.55-5.66,5.26-4.5,9.72,31.53,36.54,55.44,79.22,68.55,125.91l9.33,37.82-23.22-11.74c-11.9-44.83-27.81-85.66-59.2-120.26-3.31-3.65-6.73-6.9-10.85-9.22-5.38-3.04-11.35-1.76-15.21,2.86-4.21,5.03-6.37,11.04-7.82,17.59-3.92,17.73-.94,35.38,6.67,51.87,16.26,35.23,49.5,50.66,82.73,67.96ZM342.1,353.4c-8.3-53.58-16.49-105.61-13.78-159.28,1.57-31.08,6.6-61.08,16.41-90.52,3.19-9.58,7.06-18.03,11.76-26.8,1.13-2.11,1.66-4.2.86-6.64-2.74-8.36-44.58-22.91-64.91-18.74-2.98.61-4.28,5.36-4.88,8-10.29,45.13-10.61,115.44-8.66,163.09,1.09,26.76,4.09,52.19,8.32,78.47,3.37,20.92,8.06,40.74,14.41,60.84,1.15,3.63,3.89,5.91,7.94,5.51,9.62-.95,18.91-2.55,27.99-5.52,3.41-1.12,5.2-4.14,4.54-8.42ZM655.82,399.22c7.29-34.32,9.78-89.07,3.44-122.52-1.89-9.97-7.01-18.07-16.31-22.42l-40.51-18.93-47.04-20.36c-15.68-6.79-30.38-13.8-45.23-22.22-20.54-11.64-37.81-26.36-52.37-44.88l-19.29-24.53c-10.39-13.22-25.1-28.64-40.18-35.04-13.95-5.92-24.81,4.23-30.93,17.78-13.54,29.98-14.48,77.12-14.37,111.28.17,55.77,5.12,110.9,24.24,163.4,3.63,9.98,7.65,19.07,13.21,27.99,6.96,11.16,19.89,16.06,32.59,12.19,15.34-4.68,29.91-5.11,46.04-3.15l117.18,14.21c12.74,1.54,24.54,2.06,36.9-.15,16.98-3.04,28.93-15.22,32.64-32.65ZM553.02,445.19l-74.7-9.31-21.72-2.77c-3.22-.41-5.87.89-6.58,3.94-.47,2.03.69,6.14,3.86,6.54l99.01,12.62c3.47.44,5.95-2.83,5.89-5.36-.08-3.36-2.32-5.23-5.76-5.66ZM476.47,465.87l-79.19-12.91c-3.35-.55-5.88,1.45-6.54,4.29-.45,1.93,1.01,5.51,4.06,6.01l81.08,13.45c3.93.65,6.62-1.45,6.8-4.91s-1.94-5.25-6.21-5.94ZM400.18,483.57l-54.62-9.67c-3.5-.62-6.17,1.1-6.76,4.22-.47,2.51.9,5.62,4.21,6.22l55.52,10.08c3.59.65,6.5-1.19,7.07-4.53.48-2.81-1.71-5.66-5.42-6.32ZM303.98,919.75c-.08,3.11,3.98,4.38,5.65,3.96,1.73-.43,4.68-1.5,4.8-4.34,4.77-113.94,5.69-227.6,3.82-341.68-.05-3.33-3.55-4.52-5.51-4.36-2.66.22-4.98,1.63-4.98,5.01l-.16,187.14-.74,39.75-2.88,114.51Z"/>
      <path class="cls-1" d="M222.27,535.51c-27.55.84-49.88,17.04-59.72,42.14-4.92,12.55-8.29,24.75-12.01,38.04-20.39,76.76-39.81,153.18-57.95,230.63-10.84,4.34-21.48,6.88-32.67,9l11.28-45.15,39.44-161.86,26.98-121.1c9.65-43.3,16.53-86.29,22.09-130.22,1.99-15.74,3.23-30.46,3-45.97-.32-8.27-.91-15.88-2.43-24.85l19.3,10.43,4.22,42.26c.4,3.97,2.18,8.25,5.69,10,4.99,2.5,10.28,2.23,16.39,1.3l7.26,61.34-24.83,6.38c-2.87.74-3.6,4.36-2.83,6.46.98,2.66,3.52,3.9,6.6,3.4l22.37-5.29,7.8,73.05Z"/>
      <path class="cls-1" d="M450.92,725.1l-1.63,19.38c-7.82,3.38-16.19,4.91-25.51,5.6l2.07-124.43-.68-39.03c10.2-4.51,20.97-7.89,32.67-10.37l-1.06,21.32-3.12,77.51-2.74,50.02Z"/>
      <path class="cls-1" d="M412.56,749.21c-5.16-.35-9.34-1.81-13.42-4.16l-1.21-21.4-1.04-30.68-.78-18.42-3.6-62.76c5.95-8.47,13.35-14.68,21.9-19.81l-.02,78.24-1.83,78.99Z"/>
    </g>
  </g>
</svg>